<svg width="512" height="512" viewBox="0 0 1024 1024" fill="none" xmlns="http://www.w3.org/2000/svg">
  <defs>
    <linearGradient id="bg" x1="168" y1="104" x2="854" y2="914" gradientUnits="userSpaceOnUse">
      <stop stop-color="#142033"/>
      <stop offset="1" stop-color="#1C2938"/>
    </linearGradient>
    <linearGradient id="orbit" x1="278" y1="224" x2="818" y2="778" gradientUnits="userSpaceOnUse">
      <stop stop-color="#D6E8FF"/>
      <stop offset="0.42" stop-color="#92BFFF"/>
      <stop offset="1" stop-color="#4E91FF"/>
    </linearGradient>
    <radialGradient id="anchor" cx="0" cy="0" r="1" gradientUnits="userSpaceOnUse" gradientTransform="translate(330 684) rotate(46.5) scale(96)">
      <stop stop-color="#E4FFEA"/>
      <stop offset="0.42" stop-color="#94E7A4"/>
      <stop offset="1" stop-color="#33BB60"/>
    </radialGradient>
  </defs>
  <rect x="48" y="48" width="928" height="928" rx="228" fill="url(#bg)"/>
  <rect x="68" y="68" width="888" height="888" rx="208" stroke="#DCEAFF" stroke-opacity="0.07" stroke-width="2"/>
  <path d="M395 228C293 262 219 340 194 448C164 578 208 706 311 788C420 874 585 886 721 814C842 750 904 621 893 482C886 393 849 317 781 256" stroke="url(#orbit)" stroke-width="78" stroke-linecap="round" stroke-linejoin="round"/>
  <path d="M681 288C732 328 767 383 785 456" stroke="#D7E8FF" stroke-opacity="0.20" stroke-width="16" stroke-linecap="round"/>
  <path d="M372 674C425 627 485 597 560 589" stroke="#C0D0E3" stroke-opacity="0.24" stroke-width="18" stroke-linecap="round"/>
  <circle cx="330" cy="684" r="48" fill="url(#anchor)"/>
  <circle cx="330" cy="684" r="17" fill="#F4FFF6" fill-opacity="0.62"/>
</svg>
