<svg xmlns="http://www.w3.org/2000/svg" width="1200" height="640" viewBox="0 0 1200 640" fill="none">
  <defs>
    <linearGradient id="bg" x1="120" y1="80" x2="1090" y2="560" gradientUnits="userSpaceOnUse">
      <stop stop-color="#F8F4EB"/>
      <stop offset="1" stop-color="#EFF4F8"/>
    </linearGradient>
    <linearGradient id="iconBg" x1="0" y1="0" x2="96" y2="96" gradientUnits="userSpaceOnUse">
      <stop stop-color="#142033"/>
      <stop offset="1" stop-color="#1C2938"/>
    </linearGradient>
    <linearGradient id="iconOrbit" x1="18" y1="18" x2="79" y2="79" gradientUnits="userSpaceOnUse">
      <stop stop-color="#D6E8FF"/>
      <stop offset="0.42" stop-color="#92BFFF"/>
      <stop offset="1" stop-color="#4E91FF"/>
    </linearGradient>
    <radialGradient id="iconAnchor" cx="0" cy="0" r="1" gradientUnits="userSpaceOnUse" gradientTransform="translate(30 68) rotate(46.5) scale(9.4)">
      <stop stop-color="#E4FFEA"/>
      <stop offset="0.42" stop-color="#94E7A4"/>
      <stop offset="1" stop-color="#33BB60"/>
    </radialGradient>
  </defs>
  <rect width="1200" height="640" fill="url(#bg)"/>
  <rect x="70" y="72" width="1060" height="496" rx="28" fill="#FFFEFB" stroke="#23384D" stroke-width="3"/>

  <g transform="translate(100 102)">
    <rect width="52" height="52" rx="14" fill="url(#iconBg)"/>
    <path d="M22 15C15 17 10 23 9 31C7 40 10 48 17 54C23 59 33 60 41 56C49 52 53 44 53 36C53 30 50 23 44 18" stroke="url(#iconOrbit)" stroke-width="6.4" stroke-linecap="round" stroke-linejoin="round"/>
    <path d="M40 20C44 23 47 28 48 33" stroke="#D7E8FF" stroke-opacity="0.2" stroke-width="1.4" stroke-linecap="round"/>
    <path d="M20 46C24 42 29 40 35 39" stroke="#C0D0E3" stroke-opacity="0.24" stroke-width="1.6" stroke-linecap="round"/>
    <circle cx="18" cy="46" r="4.4" fill="url(#iconAnchor)"/>
    <circle cx="18" cy="46" r="1.6" fill="#F4FFF6" fill-opacity="0.62"/>
  </g>

  <text x="170" y="136" fill="#152233" font-family="Helvetica, Arial, sans-serif" font-size="34" font-weight="700">Workflow: Organize Downloads</text>
  <text x="170" y="172" fill="#607A8C" font-family="Helvetica, Arial, sans-serif" font-size="19">Low-risk file organization with approvals, audit trail, and rollback built in.</text>

  <rect x="98" y="220" width="286" height="270" rx="22" fill="#F5ECDD" stroke="#D6CAB7"/>
  <text x="124" y="258" fill="#1D3347" font-family="Helvetica, Arial, sans-serif" font-size="18" font-weight="700">Before</text>
  <text x="124" y="300" fill="#615749" font-family="Helvetica, Arial, sans-serif" font-size="21">resume-v3.docx</text>
  <text x="124" y="332" fill="#615749" font-family="Helvetica, Arial, sans-serif" font-size="21">IMG_4022.png</text>
  <text x="124" y="364" fill="#615749" font-family="Helvetica, Arial, sans-serif" font-size="21">design-mockup.sketch</text>
  <text x="124" y="396" fill="#615749" font-family="Helvetica, Arial, sans-serif" font-size="21">tax-receipt.pdf</text>

  <rect x="456" y="220" width="304" height="270" rx="22" fill="#EBF7EF" stroke="#BCD8C5"/>
  <text x="482" y="258" fill="#1D3347" font-family="Helvetica, Arial, sans-serif" font-size="18" font-weight="700">After</text>
  <text x="482" y="300" fill="#27465D" font-family="Helvetica, Arial, sans-serif" font-size="21">Documents/ resume-v3.docx</text>
  <text x="482" y="332" fill="#27465D" font-family="Helvetica, Arial, sans-serif" font-size="21">Images/ IMG_4022.png</text>
  <text x="482" y="364" fill="#27465D" font-family="Helvetica, Arial, sans-serif" font-size="21">Receipts/ tax-receipt.pdf</text>
  <text x="482" y="396" fill="#6D7C88" font-family="Helvetica, Arial, sans-serif" font-size="18">design-mockup.sketch kept in place</text>

  <rect x="828" y="220" width="270" height="270" rx="22" fill="#EEF4FA" stroke="#C8D7E8"/>
  <text x="852" y="258" fill="#1D3347" font-family="Helvetica, Arial, sans-serif" font-size="18" font-weight="700">Trust Surface</text>
  <rect x="852" y="292" width="156" height="34" rx="17" fill="#E8F4EC"/>
  <text x="880" y="314" fill="#215D3B" font-family="Helvetica, Arial, sans-serif" font-size="15">Approval ready</text>
  <rect x="852" y="340" width="146" height="34" rx="17" fill="#DDECF3"/>
  <text x="888" y="362" fill="#284E67" font-family="Helvetica, Arial, sans-serif" font-size="15">Audit trail</text>
  <rect x="852" y="388" width="134" height="34" rx="17" fill="#EAF3F8"/>
  <text x="888" y="410" fill="#2E5068" font-family="Helvetica, Arial, sans-serif" font-size="15">Rollback</text>

  <text x="98" y="526" fill="#527081" font-family="Helvetica, Arial, sans-serif" font-size="22">Organize Downloads is where Mantle proves that local actions can still be safe, reviewable, and reversible.</text>
</svg>
