<svg xmlns="http://www.w3.org/2000/svg" width="1200" height="640" viewBox="0 0 1200 640" fill="none">
  <defs>
    <linearGradient id="bg" x1="120" y1="80" x2="1090" y2="560" gradientUnits="userSpaceOnUse">
      <stop stop-color="#F8F4EB"/>
      <stop offset="1" stop-color="#EFF4F8"/>
    </linearGradient>
    <linearGradient id="iconBg" x1="0" y1="0" x2="96" y2="96" gradientUnits="userSpaceOnUse">
      <stop stop-color="#142033"/>
      <stop offset="1" stop-color="#1C2938"/>
    </linearGradient>
    <linearGradient id="iconOrbit" x1="18" y1="18" x2="79" y2="79" gradientUnits="userSpaceOnUse">
      <stop stop-color="#D6E8FF"/>
      <stop offset="0.42" stop-color="#92BFFF"/>
      <stop offset="1" stop-color="#4E91FF"/>
    </linearGradient>
    <radialGradient id="iconAnchor" cx="0" cy="0" r="1" gradientUnits="userSpaceOnUse" gradientTransform="translate(30 68) rotate(46.5) scale(9.4)">
      <stop stop-color="#E4FFEA"/>
      <stop offset="0.42" stop-color="#94E7A4"/>
      <stop offset="1" stop-color="#33BB60"/>
    </radialGradient>
  </defs>
  <rect width="1200" height="640" fill="url(#bg)"/>
  <rect x="70" y="72" width="1060" height="496" rx="28" fill="#FFFEFB" stroke="#23384D" stroke-width="3"/>

  <g transform="translate(100 102)">
    <rect width="52" height="52" rx="14" fill="url(#iconBg)"/>
    <path d="M22 15C15 17 10 23 9 31C7 40 10 48 17 54C23 59 33 60 41 56C49 52 53 44 53 36C53 30 50 23 44 18" stroke="url(#iconOrbit)" stroke-width="6.4" stroke-linecap="round" stroke-linejoin="round"/>
    <path d="M40 20C44 23 47 28 48 33" stroke="#D7E8FF" stroke-opacity="0.2" stroke-width="1.4" stroke-linecap="round"/>
    <path d="M20 46C24 42 29 40 35 39" stroke="#C0D0E3" stroke-opacity="0.24" stroke-width="1.6" stroke-linecap="round"/>
    <circle cx="18" cy="46" r="4.4" fill="url(#iconAnchor)"/>
    <circle cx="18" cy="46" r="1.6" fill="#F4FFF6" fill-opacity="0.62"/>
  </g>

  <text x="170" y="136" fill="#152233" font-family="Helvetica, Arial, sans-serif" font-size="34" font-weight="700">Workflow: Turn Context into Todo</text>
  <text x="170" y="172" fill="#607A8C" font-family="Helvetica, Arial, sans-serif" font-size="19">The clearest expression of Mantle’s context-aware identity.</text>

  <rect x="98" y="220" width="420" height="270" rx="22" fill="#F5ECDD" stroke="#D6CAB7"/>
  <text x="124" y="258" fill="#1D3347" font-family="Helvetica, Arial, sans-serif" font-size="18" font-weight="700">Context signals</text>
  <text x="124" y="300" fill="#615749" font-family="Helvetica, Arial, sans-serif" font-size="20">Foreground app: Xcode</text>
  <text x="124" y="332" fill="#615749" font-family="Helvetica, Arial, sans-serif" font-size="20">Window: Launch benchmark gate hardening</text>
  <text x="124" y="364" fill="#615749" font-family="Helvetica, Arial, sans-serif" font-size="20">Recent files: system-prompt.ts, summary.json</text>
  <rect x="124" y="402" width="150" height="32" rx="16" fill="#E7D7AE"/>
  <text x="148" y="423" fill="#5B4A1F" font-family="Helvetica, Arial, sans-serif" font-size="15">Current app aware</text>

  <rect x="654" y="220" width="398" height="270" rx="22" fill="#EBF7EF" stroke="#BCD8C5"/>
  <text x="680" y="258" fill="#1D3347" font-family="Helvetica, Arial, sans-serif" font-size="18" font-weight="700">Actionable output</text>
  <text x="680" y="304" fill="#27465D" font-family="Helvetica, Arial, sans-serif" font-size="20">• tighten the downloads conservative checks</text>
  <text x="680" y="336" fill="#27465D" font-family="Helvetica, Arial, sans-serif" font-size="20">• rerun replay + L2 gates</text>
  <text x="680" y="368" fill="#27465D" font-family="Helvetica, Arial, sans-serif" font-size="20">• update launch README screenshots</text>
  <rect x="680" y="404" width="152" height="34" rx="17" fill="#DDECF3"/>
  <text x="708" y="426" fill="#2B5068" font-family="Helvetica, Arial, sans-serif" font-size="15">Grounded output</text>

  <text x="98" y="526" fill="#527081" font-family="Helvetica, Arial, sans-serif" font-size="22">Mantle turns your current working context into next steps without forcing you to re-explain the room.</text>
</svg>
